<mxfile host="65bd71144e" modified="2021-01-15T08:31:08.451Z" agent="5.0 (Windows NT 10.0; Win64; x64) AppleWebKit/537.36 (KHTML, like Gecko) Code/1.52.1 Chrome/83.0.4103.122 Electron/9.3.5 Safari/537.36" etag="jAsQMRfcdYdY7hJrGvZ9" version="13.10.0" type="embed">
    <diagram id="X3JFJ_DxT3fkNJaawJKQ" name="Page-1">
        <mxGraphModel dx="588" dy="472" grid="1" gridSize="10" guides="1" tooltips="1" connect="1" arrows="1" fold="1" page="1" pageScale="1" pageWidth="827" pageHeight="1169" math="0" shadow="0">
            <root>
                <mxCell id="0"/>
                <mxCell id="1" parent="0"/>
                <mxCell id="odOKsXgZYbs-RsLMrPgO-2" value="" style="rounded=0;whiteSpace=wrap;html=1;fontColor=#000000;" parent="1" vertex="1">
                    <mxGeometry x="40" y="40" width="320" height="200" as="geometry"/>
                </mxCell>
                <mxCell id="odOKsXgZYbs-RsLMrPgO-3" value="Page de connection&lt;br&gt;" style="text;html=1;strokeColor=none;fillColor=none;align=center;verticalAlign=middle;whiteSpace=wrap;rounded=0;fontColor=#000000;" parent="1" vertex="1">
                    <mxGeometry x="115" y="80" width="170" height="20" as="geometry"/>
                </mxCell>
                <mxCell id="odOKsXgZYbs-RsLMrPgO-4" value="Mail + Mot de Passe" style="text;html=1;strokeColor=none;fillColor=none;align=center;verticalAlign=middle;whiteSpace=wrap;rounded=0;fontColor=#000000;" parent="1" vertex="1">
                    <mxGeometry x="135" y="150" width="130" height="20" as="geometry"/>
                </mxCell>
                <mxCell id="odOKsXgZYbs-RsLMrPgO-5" value="" style="rounded=0;whiteSpace=wrap;html=1;fontColor=#000000;" parent="1" vertex="1">
                    <mxGeometry x="440" y="40" width="320" height="200" as="geometry"/>
                </mxCell>
                <mxCell id="odOKsXgZYbs-RsLMrPgO-6" value="Page Stagiaire" style="text;html=1;strokeColor=none;fillColor=none;align=center;verticalAlign=middle;whiteSpace=wrap;rounded=0;fontColor=#000000;" parent="1" vertex="1">
                    <mxGeometry x="540" y="80" width="120" height="20" as="geometry"/>
                </mxCell>
                <mxCell id="odOKsXgZYbs-RsLMrPgO-7" value="Affichage des infos du stagiaire" style="text;html=1;strokeColor=none;fillColor=none;align=center;verticalAlign=middle;whiteSpace=wrap;rounded=0;fontColor=#000000;" parent="1" vertex="1">
                    <mxGeometry x="495" y="130" width="210" height="20" as="geometry"/>
                </mxCell>
                <mxCell id="odOKsXgZYbs-RsLMrPgO-8" value="Saisie de l'adresse Mail su tuteur" style="text;html=1;strokeColor=none;fillColor=none;align=center;verticalAlign=middle;whiteSpace=wrap;rounded=0;fontColor=#000000;" parent="1" vertex="1">
                    <mxGeometry x="490" y="180" width="220" height="20" as="geometry"/>
                </mxCell>
                <mxCell id="odOKsXgZYbs-RsLMrPgO-9" value="Mettre bouton &quot;Changer de stagiaire&quot;" style="rounded=0;whiteSpace=wrap;html=1;fontColor=#000000;" parent="1" vertex="1">
                    <mxGeometry x="40" y="320" width="320" height="80" as="geometry"/>
                </mxCell>
                <mxCell id="odOKsXgZYbs-RsLMrPgO-10" value="Page Entreprise" style="text;html=1;strokeColor=none;fillColor=none;align=center;verticalAlign=middle;whiteSpace=wrap;rounded=0;fontColor=#000000;" parent="1" vertex="1">
                    <mxGeometry x="120" y="330" width="160" height="20" as="geometry"/>
                </mxCell>
                <mxCell id="odOKsXgZYbs-RsLMrPgO-11" value="Onglets&lt;br&gt;" style="text;html=1;strokeColor=#d6b656;fillColor=#fff2cc;align=center;verticalAlign=middle;whiteSpace=wrap;rounded=0;fontColor=#000000;" parent="1" vertex="1">
                    <mxGeometry x="170" y="370" width="40" height="20" as="geometry"/>
                </mxCell>
                <mxCell id="odOKsXgZYbs-RsLMrPgO-12" value="" style="rounded=0;whiteSpace=wrap;html=1;fillColor=#fff2cc;strokeColor=#d6b656;fontColor=#000000;" parent="1" vertex="1">
                    <mxGeometry x="40" y="440" width="120" height="60" as="geometry"/>
                </mxCell>
                <mxCell id="odOKsXgZYbs-RsLMrPgO-13" value="Infos du stagiaire" style="text;html=1;strokeColor=none;fillColor=none;align=center;verticalAlign=middle;whiteSpace=wrap;rounded=0;fontColor=#000000;" parent="1" vertex="1">
                    <mxGeometry x="60" y="460" width="80" height="20" as="geometry"/>
                </mxCell>
                <mxCell id="odOKsXgZYbs-RsLMrPgO-14" value="" style="rounded=0;whiteSpace=wrap;html=1;fillColor=#fff2cc;strokeColor=#d6b656;fontColor=#000000;" parent="1" vertex="1">
                    <mxGeometry x="200" y="440" width="120" height="60" as="geometry"/>
                </mxCell>
                <mxCell id="odOKsXgZYbs-RsLMrPgO-15" value="Infos Entreprise" style="text;html=1;strokeColor=none;fillColor=none;align=center;verticalAlign=middle;whiteSpace=wrap;rounded=0;fontColor=#000000;" parent="1" vertex="1">
                    <mxGeometry x="230" y="450" width="50" height="40" as="geometry"/>
                </mxCell>
                <mxCell id="odOKsXgZYbs-RsLMrPgO-16" value="" style="rounded=0;whiteSpace=wrap;html=1;fillColor=#fff2cc;strokeColor=#d6b656;fontColor=#000000;" parent="1" vertex="1">
                    <mxGeometry x="360" y="440" width="120" height="60" as="geometry"/>
                </mxCell>
                <mxCell id="odOKsXgZYbs-RsLMrPgO-17" value="" style="rounded=0;whiteSpace=wrap;html=1;fillColor=#e3c800;strokeColor=#B09500;fontColor=#000000;" parent="1" vertex="1">
                    <mxGeometry x="520" y="440" width="120" height="60" as="geometry"/>
                </mxCell>
                <mxCell id="odOKsXgZYbs-RsLMrPgO-18" value="" style="rounded=0;whiteSpace=wrap;html=1;fillColor=#e3c800;strokeColor=#B09500;fontColor=#000000;" parent="1" vertex="1">
                    <mxGeometry x="680" y="440" width="120" height="60" as="geometry"/>
                </mxCell>
                <mxCell id="odOKsXgZYbs-RsLMrPgO-19" value="Conditions de stage" style="text;html=1;strokeColor=none;fillColor=none;align=center;verticalAlign=middle;whiteSpace=wrap;rounded=0;fontColor=#000000;" parent="1" vertex="1">
                    <mxGeometry x="374" y="460" width="86" height="20" as="geometry"/>
                </mxCell>
                <mxCell id="odOKsXgZYbs-RsLMrPgO-20" value="Sujet de stage&lt;br&gt;" style="text;html=1;strokeColor=none;fillColor=none;align=center;verticalAlign=middle;whiteSpace=wrap;rounded=0;fontColor=#000000;" parent="1" vertex="1">
                    <mxGeometry x="550" y="460" width="60" height="20" as="geometry"/>
                </mxCell>
                <mxCell id="odOKsXgZYbs-RsLMrPgO-22" value="Signatures" style="text;html=1;strokeColor=none;fillColor=none;align=center;verticalAlign=middle;whiteSpace=wrap;rounded=0;fontColor=#000000;" parent="1" vertex="1">
                    <mxGeometry x="720" y="460" width="40" height="20" as="geometry"/>
                </mxCell>
                <mxCell id="odOKsXgZYbs-RsLMrPgO-23" value="" style="rounded=0;whiteSpace=wrap;html=1;fillColor=#fff2cc;strokeColor=#d6b656;fontColor=#000000;" parent="1" vertex="1">
                    <mxGeometry x="480" y="320" width="120" height="60" as="geometry"/>
                </mxCell>
                <mxCell id="odOKsXgZYbs-RsLMrPgO-24" value="Evaluation&lt;br&gt;" style="text;html=1;strokeColor=none;fillColor=none;align=center;verticalAlign=middle;whiteSpace=wrap;rounded=0;fontColor=#000000;" parent="1" vertex="1">
                    <mxGeometry x="520" y="340" width="40" height="20" as="geometry"/>
                </mxCell>
                <mxCell id="odOKsXgZYbs-RsLMrPgO-25" style="edgeStyle=orthogonalEdgeStyle;rounded=0;orthogonalLoop=1;jettySize=auto;html=1;exitX=0.5;exitY=1;exitDx=0;exitDy=0;fontColor=#000000;" parent="1" source="odOKsXgZYbs-RsLMrPgO-14" target="odOKsXgZYbs-RsLMrPgO-14" edge="1">
                    <mxGeometry relative="1" as="geometry"/>
                </mxCell>
                <mxCell id="odOKsXgZYbs-RsLMrPgO-26" value="" style="rounded=0;whiteSpace=wrap;html=1;fontColor=#000000;" parent="1" vertex="1">
                    <mxGeometry x="40" y="560" width="280" height="160" as="geometry"/>
                </mxCell>
                <mxCell id="odOKsXgZYbs-RsLMrPgO-27" value="Page Formateur&lt;br&gt;" style="text;html=1;strokeColor=none;fillColor=none;align=center;verticalAlign=middle;whiteSpace=wrap;rounded=0;fontColor=#000000;" parent="1" vertex="1">
                    <mxGeometry x="130" y="575" width="100" height="20" as="geometry"/>
                </mxCell>
                <mxCell id="odOKsXgZYbs-RsLMrPgO-28" value="Select Session Formation" style="text;html=1;strokeColor=#B09500;fillColor=#e3c800;align=center;verticalAlign=middle;whiteSpace=wrap;rounded=0;fontColor=#ffffff;" parent="1" vertex="1">
                    <mxGeometry x="60" y="610" width="240" height="20" as="geometry"/>
                </mxCell>
                <mxCell id="odOKsXgZYbs-RsLMrPgO-30" value="Bouton &quot;Liste Stagiaires" style="text;html=1;strokeColor=#6c8ebf;fillColor=#dae8fc;align=center;verticalAlign=middle;whiteSpace=wrap;rounded=0;fontColor=#000000;" parent="1" vertex="1">
                    <mxGeometry x="110" y="640" width="140" height="20" as="geometry"/>
                </mxCell>
                <mxCell id="odOKsXgZYbs-RsLMrPgO-31" value="Bouton &quot;Objectif PAE&quot;" style="text;html=1;strokeColor=#b85450;fillColor=#f8cecc;align=center;verticalAlign=middle;whiteSpace=wrap;rounded=0;fontColor=#000000;" parent="1" vertex="1">
                    <mxGeometry x="120" y="670" width="120" height="20" as="geometry"/>
                </mxCell>
                <mxCell id="odOKsXgZYbs-RsLMrPgO-32" value="" style="rounded=0;whiteSpace=wrap;html=1;fillColor=#1ba1e2;strokeColor=#006EAF;fontColor=#000000;" parent="1" vertex="1">
                    <mxGeometry x="360" y="560" width="190" height="160" as="geometry"/>
                </mxCell>
                <mxCell id="odOKsXgZYbs-RsLMrPgO-33" value="Liste Stagiaire" style="text;html=1;strokeColor=none;fillColor=none;align=center;verticalAlign=middle;whiteSpace=wrap;rounded=0;fontColor=#000000;" parent="1" vertex="1">
                    <mxGeometry x="410" y="575" width="90" height="20" as="geometry"/>
                </mxCell>
                <mxCell id="odOKsXgZYbs-RsLMrPgO-34" value="Bouton Détails" style="text;html=1;strokeColor=none;fillColor=none;align=center;verticalAlign=middle;whiteSpace=wrap;rounded=0;fontColor=#000000;" parent="1" vertex="1">
                    <mxGeometry x="407.5" y="600" width="95" height="20" as="geometry"/>
                </mxCell>
                <mxCell id="odOKsXgZYbs-RsLMrPgO-35" value="Etat du stage" style="text;html=1;strokeColor=none;fillColor=none;align=center;verticalAlign=middle;whiteSpace=wrap;rounded=0;fontColor=#000000;" parent="1" vertex="1">
                    <mxGeometry x="414" y="630" width="80" height="20" as="geometry"/>
                </mxCell>
                <mxCell id="odOKsXgZYbs-RsLMrPgO-36" value="Bouton &quot;Rédiger Convention&lt;br&gt;" style="text;html=1;strokeColor=none;fillColor=none;align=center;verticalAlign=middle;whiteSpace=wrap;rounded=0;fontColor=#000000;" parent="1" vertex="1">
                    <mxGeometry x="402.5" y="660" width="100" height="20" as="geometry"/>
                </mxCell>
                <mxCell id="odOKsXgZYbs-RsLMrPgO-37" value="" style="rounded=0;whiteSpace=wrap;html=1;fillColor=#f8cecc;strokeColor=#b85450;fontColor=#000000;" parent="1" vertex="1">
                    <mxGeometry x="600" y="560" width="160" height="160" as="geometry"/>
                </mxCell>
                <mxCell id="odOKsXgZYbs-RsLMrPgO-38" value="Zone de texte" style="text;html=1;strokeColor=none;fillColor=none;align=center;verticalAlign=middle;whiteSpace=wrap;rounded=0;fontColor=#000000;" parent="1" vertex="1">
                    <mxGeometry x="630" y="630" width="100" height="20" as="geometry"/>
                </mxCell>
                <mxCell id="odOKsXgZYbs-RsLMrPgO-39" value="" style="rounded=0;whiteSpace=wrap;html=1;fontColor=#000000;" parent="1" vertex="1">
                    <mxGeometry x="40" y="800" width="280" height="160" as="geometry"/>
                </mxCell>
                <mxCell id="odOKsXgZYbs-RsLMrPgO-40" value="Page Admin" style="text;html=1;strokeColor=none;fillColor=none;align=center;verticalAlign=middle;whiteSpace=wrap;rounded=0;fontColor=#FFFFFF;" parent="1" vertex="1">
                    <mxGeometry x="130" y="810" width="110" height="20" as="geometry"/>
                </mxCell>
                <mxCell id="odOKsXgZYbs-RsLMrPgO-41" value="Bouton &quot;Gestion Formation&quot;" style="text;html=1;strokeColor=#0e8088;fillColor=#b0e3e6;align=center;verticalAlign=middle;whiteSpace=wrap;rounded=0;fontColor=#000000;" parent="1" vertex="1">
                    <mxGeometry x="80" y="830" width="190" height="20" as="geometry"/>
                </mxCell>
                <mxCell id="odOKsXgZYbs-RsLMrPgO-42" value="Bouton &quot; Gestion Session&quot;" style="text;html=1;strokeColor=#56517e;fillColor=#d0cee2;align=center;verticalAlign=middle;whiteSpace=wrap;rounded=0;fontColor=#000000;" parent="1" vertex="1">
                    <mxGeometry x="105" y="850" width="145" height="20" as="geometry"/>
                </mxCell>
                <mxCell id="odOKsXgZYbs-RsLMrPgO-43" value="Bouton &quot; Gestion Formateurs" style="text;html=1;strokeColor=#23445d;fillColor=#bac8d3;align=center;verticalAlign=middle;whiteSpace=wrap;rounded=0;fontColor=#000000;" parent="1" vertex="1">
                    <mxGeometry x="75" y="870" width="200" height="20" as="geometry"/>
                </mxCell>
                <mxCell id="odOKsXgZYbs-RsLMrPgO-44" value="Bouton &quot; Gestion Stagiaires&quot;" style="text;html=1;strokeColor=#d6b656;fillColor=#fff2cc;align=center;verticalAlign=middle;whiteSpace=wrap;rounded=0;gradientColor=#ffd966;fontColor=#000000;" parent="1" vertex="1">
                    <mxGeometry x="95" y="890" width="155" height="20" as="geometry"/>
                </mxCell>
                <mxCell id="odOKsXgZYbs-RsLMrPgO-45" value="Bouton &quot;Feuilles de Renseignements" style="text;html=1;strokeColor=#996185;fillColor=#e6d0de;align=center;verticalAlign=middle;whiteSpace=wrap;rounded=0;gradientColor=#d5739d;fontColor=#000000;" parent="1" vertex="1">
                    <mxGeometry x="75" y="910" width="210" height="20" as="geometry"/>
                </mxCell>
                <mxCell id="odOKsXgZYbs-RsLMrPgO-46" value="" style="rounded=0;whiteSpace=wrap;html=1;fillColor=#b0e3e6;strokeColor=#0e8088;fontColor=#000000;" parent="1" vertex="1">
                    <mxGeometry x="360" y="800" width="120" height="60" as="geometry"/>
                </mxCell>
                <mxCell id="odOKsXgZYbs-RsLMrPgO-47" value="CRUD Formations" style="text;html=1;strokeColor=none;fillColor=none;align=center;verticalAlign=middle;whiteSpace=wrap;rounded=0;fontColor=#000000;" parent="1" vertex="1">
                    <mxGeometry x="375" y="820" width="86" height="20" as="geometry"/>
                </mxCell>
                <mxCell id="odOKsXgZYbs-RsLMrPgO-48" value="" style="rounded=0;whiteSpace=wrap;html=1;fillColor=#d0cee2;strokeColor=#56517e;fontColor=#000000;" parent="1" vertex="1">
                    <mxGeometry x="560" y="800" width="120" height="60" as="geometry"/>
                </mxCell>
                <mxCell id="odOKsXgZYbs-RsLMrPgO-49" value="CRUD Sessions" style="text;html=1;strokeColor=none;fillColor=none;align=center;verticalAlign=middle;whiteSpace=wrap;rounded=0;fontColor=#000000;" parent="1" vertex="1">
                    <mxGeometry x="600" y="820" width="40" height="20" as="geometry"/>
                </mxCell>
                <mxCell id="odOKsXgZYbs-RsLMrPgO-50" value="" style="rounded=0;whiteSpace=wrap;html=1;fillColor=#bac8d3;strokeColor=#23445d;fontColor=#000000;" parent="1" vertex="1">
                    <mxGeometry x="360" y="900" width="120" height="60" as="geometry"/>
                </mxCell>
                <mxCell id="odOKsXgZYbs-RsLMrPgO-51" value="" style="rounded=0;whiteSpace=wrap;html=1;gradientColor=#ffd966;fillColor=#fff2cc;strokeColor=#d6b656;fontColor=#000000;" parent="1" vertex="1">
                    <mxGeometry x="560" y="900" width="120" height="100" as="geometry"/>
                </mxCell>
                <mxCell id="odOKsXgZYbs-RsLMrPgO-52" value="CRUD Formateurs" style="text;html=1;strokeColor=none;fillColor=none;align=center;verticalAlign=middle;whiteSpace=wrap;rounded=0;fontColor=#000000;" parent="1" vertex="1">
                    <mxGeometry x="394" y="920" width="40" height="20" as="geometry"/>
                </mxCell>
                <mxCell id="odOKsXgZYbs-RsLMrPgO-53" value="CRUD Stagiaires&lt;br&gt;" style="text;html=1;strokeColor=none;fillColor=none;align=center;verticalAlign=middle;whiteSpace=wrap;rounded=0;fontColor=#000000;" parent="1" vertex="1">
                    <mxGeometry x="600" y="920" width="40" height="20" as="geometry"/>
                </mxCell>
                <mxCell id="odOKsXgZYbs-RsLMrPgO-54" value="Bouton import" style="text;html=1;strokeColor=none;fillColor=none;align=center;verticalAlign=middle;whiteSpace=wrap;rounded=0;fontColor=#000000;" parent="1" vertex="1">
                    <mxGeometry x="580" y="960" width="80" height="20" as="geometry"/>
                </mxCell>
                <mxCell id="odOKsXgZYbs-RsLMrPgO-55" value="" style="rounded=0;whiteSpace=wrap;html=1;fontColor=#000000;" parent="1" vertex="1">
                    <mxGeometry x="540" y="1040" width="160" height="100" as="geometry"/>
                </mxCell>
                <mxCell id="odOKsXgZYbs-RsLMrPgO-56" value="Select Session" style="text;html=1;strokeColor=none;fillColor=none;align=center;verticalAlign=middle;whiteSpace=wrap;rounded=0;fontColor=#000000;" parent="1" vertex="1">
                    <mxGeometry x="555" y="1070" width="130" height="20" as="geometry"/>
                </mxCell>
                <mxCell id="odOKsXgZYbs-RsLMrPgO-58" value="Select fichier Excel" style="text;html=1;strokeColor=none;fillColor=none;align=center;verticalAlign=middle;whiteSpace=wrap;rounded=0;fontColor=#000000;" parent="1" vertex="1">
                    <mxGeometry x="550" y="1090" width="140" height="20" as="geometry"/>
                </mxCell>
                <mxCell id="odOKsXgZYbs-RsLMrPgO-59" value="" style="endArrow=classic;html=1;entryX=0.5;entryY=0;entryDx=0;entryDy=0;fontColor=#000000;" parent="1" target="odOKsXgZYbs-RsLMrPgO-55" edge="1">
                    <mxGeometry width="50" height="50" relative="1" as="geometry">
                        <mxPoint x="620" y="980" as="sourcePoint"/>
                        <mxPoint x="670" y="930" as="targetPoint"/>
                    </mxGeometry>
                </mxCell>
                <mxCell id="odOKsXgZYbs-RsLMrPgO-62" value="" style="rounded=0;whiteSpace=wrap;html=1;gradientColor=#d5739d;fillColor=#e6d0de;strokeColor=#996185;fontColor=#000000;" parent="1" vertex="1">
                    <mxGeometry x="40" y="1000" width="280" height="140" as="geometry"/>
                </mxCell>
                <mxCell id="odOKsXgZYbs-RsLMrPgO-63" value="Select Stagiaire" style="text;html=1;strokeColor=none;fillColor=none;align=center;verticalAlign=middle;whiteSpace=wrap;rounded=0;fontColor=#000000;" parent="1" vertex="1">
                    <mxGeometry x="110" y="1010" width="150" height="20" as="geometry"/>
                </mxCell>
                <mxCell id="odOKsXgZYbs-RsLMrPgO-64" value="Bouton &quot;Convention&quot;" style="text;html=1;strokeColor=none;fillColor=none;align=center;verticalAlign=middle;whiteSpace=wrap;rounded=0;fontColor=#000000;" parent="1" vertex="1">
                    <mxGeometry x="80" y="1040" width="190" height="20" as="geometry"/>
                </mxCell>
                <mxCell id="odOKsXgZYbs-RsLMrPgO-65" value="Boutons &quot;Renseignements&quot;" style="text;html=1;strokeColor=none;fillColor=none;align=center;verticalAlign=middle;whiteSpace=wrap;rounded=0;fontColor=#000000;" parent="1" vertex="1">
                    <mxGeometry x="90" y="1060" width="170" height="20" as="geometry"/>
                </mxCell>
                <mxCell id="odOKsXgZYbs-RsLMrPgO-66" value="Bouton &quot;Evaluation&quot;" style="text;html=1;strokeColor=none;fillColor=none;align=center;verticalAlign=middle;whiteSpace=wrap;rounded=0;fontColor=#000000;" parent="1" vertex="1">
                    <mxGeometry x="107.5" y="1080" width="135" height="20" as="geometry"/>
                </mxCell>
            </root>
        </mxGraphModel>
    </diagram>
</mxfile>